<?xml version="1.0" standalone="no"?>
<!DOCTYPE svg PUBLIC "-//W3C//DTD SVG 20010904//EN"
 "http://www.w3.org/TR/2001/REC-SVG-20010904/DTD/svg10.dtd">
<svg version="1.0" xmlns="http://www.w3.org/2000/svg"
 width="1000.000000pt" height="1000.000000pt" viewBox="0 0 1000.000000 1000.000000"
 preserveAspectRatio="xMidYMid meet">
<metadata>
Created by potrace 1.11, written by Peter Selinger 2001-2013
</metadata>
<g transform="translate(0.000000,1000.000000) scale(0.100000,-0.100000)"
fill="#000000" stroke="none">
<path d="M4718 9659 c-310 -25 -725 -141 -994 -278 -46 -23 -82 -32 -162 -41
-57 -6 -132 -20 -165 -30 -160 -50 -310 -188 -368 -339 -69 -183 -30 -404 96
-549 30 -35 55 -68 55 -73 0 -5 -23 -46 -52 -92 -181 -288 -249 -525 -269
-936 -10 -191 -6 -326 17 -566 l6 -60 -54 -26 c-29 -14 -65 -31 -80 -37 -52
-21 -63 -54 -63 -184 1 -113 2 -119 26 -144 19 -19 42 -27 95 -34 90 -13 148
-35 162 -63 6 -12 13 -71 17 -131 7 -134 26 -234 58 -313 70 -172 217 -299
416 -361 81 -24 101 -26 319 -30 225 -3 237 -2 334 22 265 69 441 205 533 412
41 91 55 168 55 297 l0 118 48 22 c63 29 211 30 292 1 l55 -19 7 -155 c3 -89
13 -181 22 -215 23 -86 78 -192 131 -252 25 -28 45 -54 45 -57 0 -3 -182 -6
-405 -6 l-405 0 0 -22 c0 -35 39 -105 78 -139 167 -147 497 -147 664 0 39 34
78 104 78 139 0 21 2 20 48 -12 75 -53 148 -86 250 -112 85 -22 116 -24 307
-24 191 0 222 2 306 24 189 48 311 116 422 236 121 131 167 258 167 465 0 86
4 126 13 132 20 17 78 32 161 42 64 8 84 14 105 35 24 25 25 31 26 144 0 130
-11 163 -63 184 -22 9 -140 66 -149 72 -1 1 4 26 12 56 48 178 78 632 56 841
-26 235 -75 422 -162 610 -27 58 -49 114 -49 125 0 10 11 54 25 97 55 170 23
332 -88 453 -63 69 -106 91 -204 105 -86 11 -92 16 -128 94 -52 114 -198 190
-314 164 -24 -5 -51 -7 -60 -4 -10 3 -48 37 -86 76 -77 81 -163 140 -280 192
-286 128 -571 174 -907 146z m962 -1353 c30 -28 97 -69 177 -109 l128 -65 35
-73 c47 -101 151 -209 256 -268 44 -24 89 -52 102 -64 13 -12 35 -60 53 -116
43 -136 86 -229 206 -450 121 -220 141 -269 150 -352 l6 -60 -29 6 c-16 4 -46
11 -67 17 -66 16 -198 38 -285 48 -56 6 -91 15 -111 30 -50 35 -152 79 -235
100 -201 51 -481 -4 -621 -122 -27 -24 -61 -39 -106 -50 -36 -9 -108 -33 -160
-53 -196 -76 -197 -77 -294 -72 -94 4 -112 9 -263 76 -52 23 -117 47 -145 53
-34 7 -65 22 -89 44 -125 112 -406 173 -597 130 -89 -20 -178 -56 -240 -95
-36 -23 -62 -31 -121 -36 -83 -8 -277 -40 -331 -55 -65 -19 -63 -26 -56 148
10 252 50 418 154 627 88 177 251 413 380 553 58 61 66 63 197 27 214 -58 417
-74 706 -56 323 20 531 51 704 107 79 25 383 146 415 164 26 15 31 13 81 -34z
m-1445 -1780 c213 -50 297 -148 311 -364 11 -168 -26 -274 -137 -384 -127
-126 -296 -185 -562 -195 -401 -16 -616 92 -691 347 -25 85 -31 232 -12 319
30 140 96 211 241 256 124 39 178 44 490 40 225 -2 306 -6 360 -19z m2128 -4
c154 -42 238 -106 275 -210 24 -67 33 -227 17 -304 -39 -189 -197 -330 -443
-395 -88 -24 -115 -26 -297 -27 -161 -1 -215 3 -278 17 -211 50 -331 166 -371
360 -20 97 -21 257 -1 324 29 97 104 173 212 213 110 41 199 49 513 46 264 -3
303 -5 373 -24z"/>
<path d="M3797 6350 c-63 -16 -137 -59 -186 -108 -115 -117 -102 -199 19 -117
56 38 144 68 228 80 l54 7 -15 -28 c-57 -113 0 -255 118 -294 59 -19 139 -8
187 26 58 41 83 93 83 176 0 58 -4 72 -30 109 -70 99 -177 150 -325 155 -52 2
-112 -1 -133 -6z"/>
<path d="M5755 6342 c-106 -36 -194 -108 -232 -187 -29 -60 7 -87 60 -45 41
33 130 69 204 85 103 22 105 22 86 -17 -29 -58 -29 -121 2 -183 35 -72 85
-107 161 -113 71 -6 132 17 178 68 120 133 30 324 -183 390 -81 25 -206 26
-276 2z"/>
<path d="M2993 5390 c0 -25 2 -35 4 -22 2 12 2 32 0 45 -2 12 -4 2 -4 -23z"/>
<path d="M6803 5390 c0 -25 2 -35 4 -22 2 12 2 32 0 45 -2 12 -4 2 -4 -23z"/>
<path d="M4303 4960 c-12 -5 -29 -20 -39 -35 -15 -22 -15 -33 -4 -88 45 -233
213 -420 445 -498 59 -20 90 -24 195 -24 105 0 136 4 195 24 147 49 290 160
363 284 38 64 77 171 87 239 7 44 5 50 -23 78 l-30 30 -584 -1 c-321 0 -593
-4 -605 -9z m1137 -37 c-12 -51 -39 -84 -90 -110 -44 -23 -50 -23 -434 -23
-375 0 -391 1 -433 21 -46 22 -93 87 -93 127 l0 22 529 0 529 0 -8 -37z"/>
<path d="M4090 3673 l0 -140 103 -41 c108 -43 283 -92 407 -114 47 -8 158 -13
300 -13 142 0 253 5 300 13 124 22 299 71 408 114 l102 41 0 140 c0 128 -1
139 -17 134 -10 -3 -57 -21 -104 -41 -196 -82 -438 -126 -689 -126 -251 0
-493 44 -689 126 -47 20 -94 38 -103 41 -17 5 -18 -6 -18 -134z"/>
<path d="M3675 3173 c-478 -62 -856 -216 -1240 -506 -115 -87 -358 -334 -451
-459 -43 -58 -108 -155 -143 -213 -61 -102 -63 -109 -50 -132 29 -47 265 -288
392 -399 387 -340 761 -569 1237 -757 192 -76 284 -106 470 -152 665 -167
1355 -167 2020 0 186 46 278 76 470 152 476 188 850 417 1237 757 127 111 363
352 391 399 14 23 11 30 -42 121 -125 212 -366 494 -551 643 -383 309 -812
489 -1306 547 l-46 5 -11 -78 c-21 -148 -81 -262 -193 -365 -114 -106 -245
-180 -419 -239 -202 -68 -422 -95 -649 -77 -454 34 -816 223 -956 500 -36 71
-55 142 -55 208 l0 52 -37 -1 c-21 -1 -51 -4 -68 -6z"/>
</g>
</svg>
